HIERARCHY
ROOT Hips
{
	OFFSET -3.958830 18.904000 13.208200
	CHANNELS 6 Xposition Yposition Zposition Zrotation Yrotation Xrotation 
	JOINT LHipJoint
	{
		OFFSET 0.000000 0.000000 0.000000
		CHANNELS 3 Zrotation Yrotation Xrotation
		JOINT LeftUpLeg
		{
			OFFSET 1.800000 -1.400000 0.085000
			CHANNELS 3 Zrotation Yrotation Xrotation
			JOINT LeftLeg
			{
				OFFSET 2.215000 -6.000000 0.000000
				CHANNELS 3 Zrotation Yrotation Xrotation
				JOINT LeftFoot
				{
					OFFSET 2.500000 -6.900000 0.000000
					CHANNELS 3 Zrotation Yrotation Xrotation
					JOINT LeftToeBase
					{
						OFFSET 0.200000 -0.500000 1.950000
						CHANNELS 3 Zrotation Yrotation Xrotation
						End Site
						{
							OFFSET 0.000000 0.000000 0.000000
						}
					}
				}
			}
		}
	}
	JOINT RHipJoint
	{
		OFFSET 0.000000 0.000000 0.000000
		CHANNELS 3 Zrotation Yrotation Xrotation
		JOINT RightUpLeg
		{
			OFFSET -1.800000 -1.400000 0.085000
			CHANNELS 3 Zrotation Yrotation Xrotation
			JOINT RightLeg
			{
				OFFSET -2.215000 -6.000000 0.000000
				CHANNELS 3 Zrotation Yrotation Xrotation
				JOINT RightFoot
				{
					OFFSET -2.500000 -6.900000 0.000000
					CHANNELS 3 Zrotation Yrotation Xrotation
					JOINT RightToeBase
					{
						OFFSET -0.200000 -0.500000 1.950000
						CHANNELS 3 Zrotation Yrotation Xrotation
						End Site
						{
							OFFSET 0.000000 0.000000 0.000000
						}
					}
				}
			}
		}
	}
	JOINT LowerBack
	{
		OFFSET 0.000000 0.000000 0.000000
		CHANNELS 3 Zrotation Yrotation Xrotation
		JOINT Spine
		{
			OFFSET -0.087000 1.940000 -0.288900
			CHANNELS 3 Zrotation Yrotation Xrotation
			JOINT Spine1
			{
				OFFSET 0.000000 1.950000 0.060000
				CHANNELS 3 Zrotation Yrotation Xrotation
				JOINT Neck
				{
					OFFSET 0.000000 0.000000 0.000000
					CHANNELS 3 Zrotation Yrotation Xrotation
					JOINT Neck1
					{
						OFFSET 0.000000 1.600000 0.340000
						CHANNELS 3 Zrotation Yrotation Xrotation
						JOINT Head
						{
							OFFSET 0.000000 1.667000 -0.240000
							CHANNELS 3 Zrotation Yrotation Xrotation
							End Site
							{
								OFFSET 0.000000 0.000000 0.000000
							}
						}
					}
				}
				JOINT LeftShoulder
				{
					OFFSET 0.000000 0.000000 0.000000
					CHANNELS 3 Zrotation Yrotation Xrotation
					JOINT LeftArm
					{
						OFFSET 2.700000 1.550000 -0.730000
						CHANNELS 3 Zrotation Yrotation Xrotation
						JOINT LeftForeArm
						{
							OFFSET 5.450000 0.000000 0.000000
							CHANNELS 3 Zrotation Yrotation Xrotation
							JOINT LeftHand
							{
								OFFSET 3.450000 0.000000 0.000000
								CHANNELS 3 Zrotation Yrotation Xrotation
								JOINT LeftHandIndex1
								{
									OFFSET 0.750000 0.000000 0.000000
									CHANNELS 3 Zrotation Yrotation Xrotation
									End Site
									{
										OFFSET 0.000000 0.000000 0.000000
									}
								}
							}
						}
					}
				}
				JOINT RightShoulder
				{
					OFFSET 0.000000 0.000000 0.000000
					CHANNELS 3 Zrotation Yrotation Xrotation
					JOINT RightArm
					{
						OFFSET -2.700000 1.550000 -0.730000
						CHANNELS 3 Zrotation Yrotation Xrotation
						JOINT RightForeArm
						{
							OFFSET -5.450000 0.000000 0.000000
							CHANNELS 3 Zrotation Yrotation Xrotation
							JOINT RightHand
							{
								OFFSET -3.450000 0.000000 0.000000
								CHANNELS 3 Zrotation Yrotation Xrotation
								JOINT RightHandIndex1
								{
									OFFSET -0.750000 0.000000 0.000000
									CHANNELS 3 Zrotation Yrotation Xrotation
									End Site
									{
										OFFSET 0.000000 0.000000 0.000000
									}
								}
							}
						}
					}
				}
			}
		}
	}
}
MOTION
Frames: 10
Frame Time: 0.016667
-1.718910 13.807640 -9.661750 -63.423710 24.879304 -66.514081 -15.924795 13.174810 4.294611 4.875241 -8.151895 -22.516615 -20.941554 16.722301 40.077339 0.339051 9.967315 1.076008 0.107630 -0.211580 0.160080 17.777259 -8.549028 3.483058 14.633974 4.858771 -18.072245 -69.821243 14.577586 29.736993 -2.280009 -10.388763 1.054068 -0.012460 0.405360 0.121740 -1.623885 -6.118719 -8.458747 -4.490169 8.095398 57.095141 7.692488 8.813938 18.543217 1.166267 8.693501 -13.133103 12.009905 -5.692557 44.676133 11.763060 -1.916300 -13.016260 -4.724260 -16.061779 5.324292 -34.297148 -12.605465 0.830046 8.381574 -2.024174 -1.519166 -4.085541 2.385218 0.852810 0.101090 -0.002680 0.013710 0.518862 13.393354 11.332578 48.235676 -16.377686 -12.290144 -12.138719 -6.367702 1.898165 2.388415 -0.873458 -0.490460 0.513480 0.311670 -0.311040 
-1.693650 13.746290 -9.698990 -61.998029 21.311514 -66.421784 -15.828579 12.926784 4.188928 6.858970 -6.943823 -23.157155 -22.124722 17.087723 38.777989 0.340899 9.965644 1.079437 0.104920 -0.202410 0.129970 17.902982 -8.521341 3.705152 16.862429 6.520417 -18.723858 -63.209452 15.775070 35.715188 -2.281932 -10.528352 1.034995 -0.009990 0.431570 0.112040 -2.013762 -5.297604 -8.614304 -0.804247 5.769384 57.766835 4.663490 8.482824 19.024785 2.019641 7.033543 -12.998963 9.230743 -3.890652 45.517767 11.367210 -1.620480 -12.774940 -6.384999 -15.220631 4.865955 -33.982337 -11.155284 0.130136 9.042991 -2.663606 -1.606054 -4.089780 2.373160 0.832960 0.107350 -0.016390 0.033790 0.637826 13.445049 11.479743 44.546123 -14.953557 -10.795269 -13.080978 -5.784237 1.725120 2.377781 -0.897991 -0.487310 0.534780 0.311900 -0.286840 
-1.655340 13.715420 -9.732160 -61.081299 19.450359 -66.870984 -15.749465 12.873576 4.070479 6.849787 -6.358704 -23.789477 -19.741502 17.158521 41.053066 0.374625 10.066353 1.083512 0.132740 -0.147240 0.126180 17.985706 -8.603039 3.809549 16.020095 8.289883 -20.629944 -54.352290 17.394374 46.907162 -2.436055 -11.227131 0.882442 0.013320 0.457000 0.076080 -2.283147 -4.803772 -8.639744 1.102078 4.147460 57.709048 2.888321 7.402403 20.677652 2.293372 5.561138 -13.546722 6.664790 -1.924706 47.090977 11.268620 -0.858030 -12.632450 -7.050886 -16.335814 5.648006 -34.553655 -8.144800 -1.254137 9.765599 -4.191854 -1.753204 -4.012061 2.346509 0.834010 0.096210 0.000250 0.090900 0.914288 15.073657 12.038875 41.358092 -14.240206 -10.397017 -16.587075 -4.483796 1.466179 2.358175 -0.965553 -0.495840 0.602560 0.268340 -0.256800 
-1.619520 13.743200 -9.754670 -58.709273 17.549010 -67.369734 -15.744375 13.048190 3.921658 7.333960 -4.995507 -23.146003 -19.086201 17.129855 40.188741 0.377003 9.817556 1.172875 0.201110 -0.049530 0.188480 17.973564 -8.606478 3.861736 13.935889 10.202313 -22.660946 -39.558632 14.242309 57.886141 -2.280216 -10.776471 0.995034 0.054200 0.392140 0.023260 -2.283721 -4.829147 -8.586763 0.514608 4.525059 57.422328 2.670364 7.261627 23.010739 2.395058 3.980163 -14.498437 3.520008 0.083143 49.459885 10.170250 0.214100 -12.390680 -8.120877 -18.514685 7.097115 -35.334008 -4.132893 -2.841437 10.414018 -5.366375 -1.810861 -3.864301 2.368651 0.833170 0.038220 0.047210 0.125270 1.748934 18.562048 13.156163 37.475968 -14.641024 -11.213550 -22.213066 -3.478868 0.889261 2.384307 -1.110330 -0.477470 0.622190 0.182080 -0.248190 
-1.585630 13.717970 -9.766780 -57.652717 17.227164 -67.808215 -15.775766 13.210729 3.920972 6.208254 -4.847926 -23.754942 -18.741612 16.447010 38.351188 0.296893 9.373015 1.364111 0.166440 -0.088580 0.172340 17.911206 -8.563258 3.814459 7.435175 12.042235 -27.567440 -22.722976 5.320303 69.898904 -2.010742 -10.353879 1.109015 0.036000 0.430060 -0.021500 -2.151425 -5.184491 -8.579810 -0.257196 4.976146 57.958119 3.289698 6.974704 21.898060 2.678533 3.392818 -14.349715 2.027805 0.836006 50.953707 9.620430 0.169560 -11.409340 -10.395853 -18.139101 6.972271 -35.543458 -2.726117 -3.415231 11.061898 -5.927278 -1.897006 -3.835871 2.306708 0.836060 0.044310 0.030540 0.148430 3.544462 18.732793 12.947406 32.496657 -15.870537 -12.756097 -29.604218 -0.257237 -0.509007 2.325449 -1.215699 -0.519580 0.682730 0.172980 -0.239130 
-1.557710 13.619110 -9.775150 -60.428811 18.934205 -68.560558 -15.735757 13.262927 3.983442 2.181204 -6.772776 -25.713637 -13.198036 13.945904 40.829115 0.214787 8.716519 1.624329 0.145670 -0.081460 0.123710 17.896709 -8.663320 3.704310 -2.228012 11.082284 -32.255613 -4.750805 -9.282075 72.712678 -1.885307 -10.606049 1.010901 0.019540 0.451030 -0.054970 -2.211123 -5.316469 -8.605883 1.110700 2.145665 58.557220 3.043623 4.048400 19.726649 3.052375 2.810170 -14.140290 0.806837 1.147938 51.047267 10.003380 -0.668840 -10.508090 -11.565061 -17.775182 7.149947 -36.467507 -1.003806 -4.260435 11.247054 -6.966216 -1.958822 -3.773261 2.319177 0.798660 0.038760 0.024510 0.187520 4.527313 17.815347 12.045723 27.781686 -16.251717 -14.302412 -36.795041 4.407163 -2.773988 2.273388 -1.317370 -0.508540 0.700710 0.144440 -0.194230 
-1.531690 13.488400 -9.753450 -58.823119 19.704509 -67.063253 -15.746405 12.973029 3.948187 -1.869598 -7.635201 -27.011720 -11.546118 11.724785 36.908971 -0.017113 7.482138 2.064973 0.126210 -0.112320 0.067370 17.915485 -8.296543 4.092427 -11.340702 10.896014 -35.067111 11.549493 -19.537200 66.903368 -1.994135 -11.444080 0.734094 0.006480 0.485320 -0.051930 -2.230916 -5.341301 -8.805170 0.810139 1.924746 57.645493 2.611162 3.466952 17.080103 3.393713 1.950683 -13.068976 -0.795333 1.360875 50.645351 10.423190 -2.087790 -9.633860 -12.371769 -14.702759 5.916999 -37.612708 -1.229852 -4.301577 10.785949 -7.270766 -1.988162 -3.794341 2.346270 0.775230 0.047850 -0.016280 0.201920 4.927625 15.574350 10.533249 22.738267 -14.579305 -15.173541 -44.079287 9.323119 -5.670229 2.190304 -1.398841 -0.507700 0.687400 0.163070 -0.171380 
-1.516120 13.344560 -9.801740 -57.750018 20.289509 -65.459966 -15.720833 12.467999 3.978098 -6.957347 -8.846979 -29.196118 -5.968485 8.479654 34.333257 -0.337145 6.076223 2.552613 0.071110 -0.207290 0.002800 18.019947 -7.885457 4.632965 -18.865916 9.984043 -37.220707 26.483864 -25.508431 57.357622 -2.035841 -11.695219 0.628329 -0.026020 0.527540 -0.046500 -2.435415 -5.046290 -9.063883 2.020097 0.568051 57.272329 1.093585 2.279690 15.379897 3.730361 1.064023 -12.769740 -2.293500 1.811988 49.824922 11.694160 -3.487050 -8.693520 -12.888275 -14.167243 5.865635 -38.166487 -0.453441 -4.396450 9.517779 -7.700081 -1.986907 -3.824435 2.372043 0.769070 0.061790 -0.081180 0.173970 5.055525 15.421057 9.729048 18.406343 -13.003260 -16.201016 -51.312160 12.648351 -8.507941 2.133076 -1.441283 -0.530730 0.669930 0.234340 -0.174020 
-1.494170 13.195900 -9.830840 -54.497217 18.132246 -63.083347 -15.600258 12.054591 3.942373 -9.264114 -8.603710 -31.384578 -2.473242 6.225442 29.444754 -0.609877 4.728565 3.044387 0.022530 -0.262570 -0.071050 18.174382 -7.836557 4.981823 -21.647909 10.575507 -37.899536 37.591620 -24.553217 45.241948 -1.792967 -10.585375 0.937824 -0.037880 0.579810 -0.071660 -2.871214 -4.114970 -9.190559 5.484692 -0.629621 56.174587 -1.954163 2.803866 14.107897 4.208245 -0.146377 -12.464270 -4.466072 2.177330 48.910501 12.970300 -5.098430 -7.930540 -14.090223 -13.559477 5.563499 -37.574439 -0.418526 -3.962682 8.391909 -7.122949 -1.851512 -3.854698 2.367065 0.745790 0.072620 -0.139380 0.173210 5.367627 15.726785 9.161271 13.936943 -11.882969 -16.887398 -58.003129 15.009523 -11.214502 2.117427 -1.458768 -0.559370 0.687950 0.278000 -0.153710 
-1.488030 13.051140 -9.826080 -51.468417 17.486595 -60.304733 -15.592367 11.580959 4.201188 -12.105427 -9.488211 -34.683836 0.806718 4.609670 26.073292 -0.788181 3.841826 3.374617 -0.035860 -0.335160 -0.115720 18.241611 -7.659385 5.146596 -24.699788 10.274309 -37.627222 45.842578 -20.906531 33.640856 -1.517187 -9.353052 1.282063 -0.062170 0.624810 -0.070720 -2.981834 -3.622709 -9.373307 6.769217 0.212504 53.742855 -3.093925 4.522350 13.088974 4.559629 0.396650 -12.196064 -3.557330 0.841425 48.957030 12.577420 -6.444610 -6.951100 -14.712067 -13.390655 5.226597 -36.766952 -2.395875 -2.505538 7.260548 -4.613714 -1.547011 -3.944395 2.331805 0.728830 0.102250 -0.181270 0.154160 5.139105 15.610527 8.767945 11.263373 -12.266971 -17.455664 -64.644452 17.122302 -13.930639 2.097291 -1.456031 -0.585680 0.699570 0.329450 -0.149030 
